<?xml version="1.0" encoding="utf-8" ?>
<svg baseProfile="tiny" height="193" version="1.2" width="550" xmlns="http://www.w3.org/2000/svg" xmlns:ev="http://www.w3.org/2001/xml-events" xmlns:xlink="http://www.w3.org/1999/xlink"><defs /><path d="M 541,185 Z" fill="rgb(148,149,153)" /><path d="M 521,185 Z" fill="rgb(148,149,153)" /><path d="M 501,185 Z" fill="rgb(148,149,153)" /><path d="M 481,185 Z" fill="rgb(148,149,153)" /><path d="M 461,185 Z" fill="rgb(148,149,153)" /><path d="M 441,185 Z" fill="rgb(148,149,153)" /><path d="M 421,185 Z" fill="rgb(148,149,153)" /><path d="M 401,185 Z" fill="rgb(148,149,153)" /><path d="M 381,185 Z" fill="rgb(148,149,153)" /><path d="M 361,185 Z" fill="rgb(148,149,153)" /><path d="M 341,185 Z" fill="rgb(148,149,153)" /><path d="M 321,185 Z" fill="rgb(148,149,153)" /><path d="M 301,185 Z" fill="rgb(148,149,153)" /><path d="M 281,185 Z" fill="rgb(148,149,153)" /><path d="M 261,185 Z" fill="rgb(148,149,153)" /><path d="M 241,185 Z" fill="rgb(148,149,153)" /><path d="M 221,185 Z" fill="rgb(148,149,153)" /><path d="M 201,185 Z" fill="rgb(148,149,153)" /><path d="M 181,185 Z" fill="rgb(148,149,153)" /><path d="M 161,185 Z" fill="rgb(148,149,153)" /><path d="M 141,185 Z" fill="rgb(148,149,153)" /><path d="M 121,185 Z" fill="rgb(148,149,153)" /><path d="M 101,185 Z" fill="rgb(148,149,153)" /><path d="M 81,185 Z" fill="rgb(148,149,153)" /><path d="M 61,185 Z" fill="rgb(148,149,153)" /><path d="M 41,185 Z" fill="rgb(148,149,153)" /><path d="M 21,185 Z" fill="rgb(148,149,153)" /><path d="M 1,185 Z" fill="rgb(148,149,153)" /><path d="M 541,165 Z" fill="rgb(148,149,153)" /><path d="M 521,165 Z" fill="rgb(148,149,153)" /><path d="M 501,165 Z" fill="rgb(148,149,153)" /><path d="M 481,165 Z" fill="rgb(148,149,153)" /><path d="M 461,165 Z" fill="rgb(148,149,153)" /><path d="M 441,165 Z" fill="rgb(148,149,153)" /><path d="M 421,165 Z" fill="rgb(148,149,153)" /><path d="M 401,165 Z" fill="rgb(148,149,153)" /><path d="M 381,165 Z" fill="rgb(148,149,153)" /><path d="M 361,165 Z" fill="rgb(148,149,153)" /><path d="M 341,165 Z" fill="rgb(148,149,153)" /><path d="M 321,165 Z" fill="rgb(148,149,153)" /><path d="M 301,165 Z" fill="rgb(148,149,153)" /><path d="M 281,165 Z" fill="rgb(148,149,153)" /><path d="M 261,165 Z" fill="rgb(148,149,153)" /><path d="M 241,165 Z" fill="rgb(148,149,153)" /><path d="M 221,165 Z" fill="rgb(148,149,153)" /><path d="M 201,165 Z" fill="rgb(148,149,153)" /><path d="M 181,165 Z" fill="rgb(148,149,153)" /><path d="M 161,165 Z" fill="rgb(148,149,153)" /><path d="M 41,165 Z" fill="rgb(148,149,153)" /><path d="M 21,165 Z" fill="rgb(148,149,153)" /><path d="M 1,165 Z" fill="rgb(148,149,153)" /><path d="M 541,145 Z" fill="rgb(148,149,153)" /><path d="M 521,145 Z" fill="rgb(148,149,153)" /><path d="M 501,145 Z" fill="rgb(148,149,153)" /><path d="M 481,145 Z" fill="rgb(148,149,153)" /><path d="M 461,145 Z" fill="rgb(148,149,153)" /><path d="M 441,145 Z" fill="rgb(148,149,153)" /><path d="M 421,145 Z" fill="rgb(148,149,153)" /><path d="M 401,145 Z" fill="rgb(148,149,153)" /><path d="M 381,145 Z" fill="rgb(148,149,153)" /><path d="M 361,145 Z" fill="rgb(148,149,153)" /><path d="M 341,145 Z" fill="rgb(148,149,153)" /><path d="M 321,145 Z" fill="rgb(148,149,153)" /><path d="M 301,145 Z" fill="rgb(148,149,153)" /><path d="M 281,145 Z" fill="rgb(148,149,153)" /><path d="M 261,145 Z" fill="rgb(148,149,153)" /><path d="M 241,145 Z" fill="rgb(148,149,153)" /><path d="M 221,145 Z" fill="rgb(148,149,153)" /><path d="M 201,145 Z" fill="rgb(148,149,153)" /><path d="M 181,145 Z" fill="rgb(148,149,153)" /><path d="M 161,145 Z" fill="rgb(148,149,153)" /><path d="M 21,145 Z" fill="rgb(148,149,153)" /><path d="M 1,145 Z" fill="rgb(148,149,153)" /><path d="M 541,125 Z" fill="rgb(148,149,153)" /><path d="M 521,125 Z" fill="rgb(148,149,153)" /><path d="M 501,125 Z" fill="rgb(148,149,153)" /><path d="M 481,125 Z" fill="rgb(148,149,153)" /><path d="M 461,125 Z" fill="rgb(148,149,153)" /><path d="M 441,125 Z" fill="rgb(148,149,153)" /><path d="M 421,125 Z" fill="rgb(148,149,153)" /><path d="M 401,125 Z" fill="rgb(148,149,153)" /><path d="M 381,125 Z" fill="rgb(148,149,153)" /><path d="M 361,125 Z" fill="rgb(148,149,153)" /><path d="M 341,125 Z" fill="rgb(148,149,153)" /><path d="M 321,125 Z" fill="rgb(148,149,153)" /><path d="M 301,125 Z" fill="rgb(148,149,153)" /><path d="M 281,125 Z" fill="rgb(148,149,153)" /><path d="M 261,125 Z" fill="rgb(148,149,153)" /><path d="M 241,125 Z" fill="rgb(148,149,153)" /><path d="M 221,125 Z" fill="rgb(148,149,153)" /><path d="M 201,125 Z" fill="rgb(148,149,153)" /><path d="M 181,125 Z" fill="rgb(148,149,153)" /><path d="M 101,125 Z" fill="rgb(148,149,153)" /><path d="M 21,125 Z" fill="rgb(148,149,153)" /><path d="M 1,125 Z" fill="rgb(148,149,153)" /><path d="M 541,105 Z" fill="rgb(148,149,153)" /><path d="M 521,105 Z" fill="rgb(148,149,153)" /><path d="M 461,105 Z" fill="rgb(148,149,153)" /><path d="M 401,105 Z" fill="rgb(148,149,153)" /><path d="M 381,105 Z" fill="rgb(148,149,153)" /><path d="M 261,105 Z" fill="rgb(148,149,153)" /><path d="M 241,105 Z" fill="rgb(148,149,153)" /><path d="M 221,105 Z" fill="rgb(148,149,153)" /><path d="M 201,105 Z" fill="rgb(148,149,153)" /><path d="M 181,105 Z" fill="rgb(148,149,153)" /><path d="M 21,105 Z" fill="rgb(148,149,153)" /><path d="M 1,105 Z" fill="rgb(148,149,153)" /><path d="M 243,93 L 242,94 L 242,97 L 241,98 L 241,99 L 244,99 L 245,98 L 247,98 L 248,97 L 252,97 L 253,96 L 258,96 L 259,95 L 263,95 L 263,93 Z" fill="rgb(59,133,131)" /><path d="M 541,85 Z" fill="rgb(148,149,153)" /><path d="M 501,85 Z" fill="rgb(148,149,153)" /><path d="M 461,85 Z" fill="rgb(148,149,153)" /><path d="M 401,85 Z" fill="rgb(148,149,153)" /><path d="M 381,85 Z" fill="rgb(148,149,153)" /><path d="M 341,85 Z" fill="rgb(148,149,153)" /><path d="M 321,85 Z" fill="rgb(148,149,153)" /><path d="M 301,85 Z" fill="rgb(148,149,153)" /><path d="M 261,85 Z" fill="rgb(148,149,153)" /><path d="M 241,85 Z" fill="rgb(148,149,153)" /><path d="M 221,85 Z" fill="rgb(148,149,153)" /><path d="M 201,85 Z" fill="rgb(148,149,153)" /><path d="M 181,85 Z" fill="rgb(148,149,153)" /><path d="M 41,85 Z" fill="rgb(148,149,153)" /><path d="M 1,85 Z" fill="rgb(148,149,153)" /><path d="M 407,74 L 408,74 L 409,75 L 411,75 L 413,77 L 413,109 L 412,110 L 412,111 L 410,113 L 408,113 L 436,113 L 437,112 L 439,112 L 440,111 L 441,111 L 442,110 L 443,110 L 446,107 L 447,107 L 447,106 L 450,103 L 450,102 L 451,101 L 451,98 L 452,97 L 452,88 L 451,87 L 451,85 L 450,84 L 450,83 L 449,82 L 449,81 L 445,77 L 444,77 L 443,76 L 442,76 L 441,75 L 439,75 L 438,74 Z" fill="rgb(132,179,177)" /><path d="M 516,72 L 515,73 L 515,75 L 514,76 L 514,77 L 513,78 L 513,79 L 512,80 L 512,82 L 511,83 L 511,84 L 510,85 L 510,86 L 509,87 L 509,89 L 508,90 L 508,91 L 507,92 L 507,94 L 506,95 L 506,96 L 505,97 L 505,98 L 504,99 L 504,101 L 503,102 L 503,103 L 501,105 L 501,108 L 499,110 L 499,111 L 498,112 L 496,110 L 495,110 L 492,107 L 492,106 L 487,101 L 487,100 L 483,96 L 483,95 L 482,94 L 484,92 L 485,92 L 485,91 L 488,88 L 488,87 L 489,86 L 489,79 L 485,75 L 483,75 L 482,74 L 458,74 L 459,74 L 460,75 L 462,75 L 464,77 L 464,109 L 463,110 L 463,111 L 462,112 L 461,112 L 460,113 L 459,113 L 476,113 L 474,113 L 473,112 L 472,112 L 471,111 L 471,97 L 472,96 L 476,96 L 478,98 L 478,99 L 480,101 L 480,102 L 482,104 L 481,105 L 482,104 L 483,105 L 483,106 L 486,109 L 486,110 L 487,111 L 488,111 L 490,113 L 508,113 L 507,113 L 506,112 L 505,112 L 504,111 L 504,110 L 505,109 L 505,107 L 506,106 L 506,105 L 507,104 L 507,102 L 509,100 L 521,100 L 522,101 L 522,102 L 523,103 L 523,104 L 524,105 L 524,107 L 525,108 L 525,109 L 526,110 L 526,112 L 525,113 L 539,113 L 538,113 L 537,112 L 536,112 L 533,109 L 533,108 L 532,107 L 532,106 L 531,105 L 531,104 L 530,103 L 530,101 L 529,100 L 529,99 L 528,98 L 528,97 L 527,96 L 527,94 L 526,93 L 526,92 L 525,91 L 525,90 L 524,89 L 524,87 L 523,86 L 523,85 L 522,84 L 522,82 L 521,81 L 521,80 L 520,79 L 520,78 L 519,77 L 519,75 L 518,74 L 518,73 L 517,72 Z" fill="rgb(65,137,135)" /><path d="M 541,65 Z" fill="rgb(148,149,153)" /><path d="M 521,65 Z" fill="rgb(148,149,153)" /><path d="M 501,65 Z" fill="rgb(148,149,153)" /><path d="M 481,65 Z" fill="rgb(148,149,153)" /><path d="M 461,65 Z" fill="rgb(148,149,153)" /><path d="M 441,65 Z" fill="rgb(148,149,153)" /><path d="M 421,65 Z" fill="rgb(148,149,153)" /><path d="M 401,65 Z" fill="rgb(148,149,153)" /><path d="M 381,65 Z" fill="rgb(148,149,153)" /><path d="M 361,65 Z" fill="rgb(148,149,153)" /><path d="M 341,65 Z" fill="rgb(148,149,153)" /><path d="M 321,65 Z" fill="rgb(148,149,153)" /><path d="M 281,65 L 280,66 L 270,66 L 271,66 L 272,67 L 274,67 L 275,68 L 275,69 L 276,70 L 276,107 L 275,108 L 275,111 L 274,112 L 273,112 L 272,113 L 271,113 L 289,113 L 287,113 L 286,112 L 285,112 L 284,111 L 284,110 L 283,109 L 283,91 L 284,90 L 286,92 L 286,93 L 291,98 L 291,99 L 296,104 L 296,105 L 302,111 L 303,111 L 305,113 L 323,113 L 322,113 L 320,111 L 320,108 L 321,107 L 321,105 L 322,104 L 322,103 L 323,102 L 323,101 L 324,100 L 336,100 L 338,102 L 338,103 L 339,104 L 339,106 L 340,107 L 340,108 L 341,109 L 341,112 L 340,113 L 369,113 L 368,112 L 366,112 L 364,110 L 364,97 L 363,96 L 363,86 L 364,85 L 368,89 L 368,90 L 381,103 L 382,103 L 393,114 L 395,114 L 395,93 L 396,92 L 396,76 L 397,75 L 398,75 L 399,74 L 400,74 L 386,74 L 387,74 L 388,75 L 390,75 L 391,76 L 391,92 L 392,93 L 392,101 L 391,102 L 384,95 L 383,95 L 381,93 L 381,92 L 380,92 L 379,91 L 379,90 L 362,73 L 360,73 L 360,82 L 359,83 L 359,111 L 358,112 L 357,112 L 356,113 L 353,113 L 352,112 L 351,112 L 349,110 L 349,109 L 347,107 L 347,106 L 346,105 L 346,103 L 345,102 L 345,101 L 344,100 L 344,98 L 343,97 L 343,96 L 342,95 L 342,94 L 341,93 L 341,91 L 340,90 L 340,89 L 339,88 L 339,87 L 338,86 L 338,84 L 337,83 L 337,82 L 336,81 L 336,79 L 335,78 L 335,77 L 334,76 L 334,75 L 333,74 L 333,73 L 332,72 L 331,72 L 331,73 L 330,74 L 330,75 L 329,76 L 329,78 L 328,79 L 328,80 L 327,81 L 327,82 L 326,83 L 326,85 L 325,86 L 325,87 L 324,88 L 324,89 L 323,90 L 323,92 L 322,93 L 322,94 L 321,95 L 321,96 L 320,97 L 320,99 L 319,100 L 319,101 L 318,102 L 318,104 L 317,105 L 317,106 L 316,107 L 316,108 L 315,109 L 315,110 L 314,111 L 313,111 L 308,106 L 307,106 L 302,101 L 302,100 L 293,91 L 293,90 L 289,86 L 295,80 L 295,79 L 300,74 L 301,74 L 301,73 L 302,72 L 303,72 L 307,68 L 308,68 L 309,67 L 312,67 L 313,66 L 302,66 L 301,65 L 300,66 L 298,66 L 298,67 L 299,67 L 300,68 L 299,69 L 299,70 L 292,77 L 292,78 L 284,86 L 283,85 L 283,70 L 284,69 L 284,68 L 285,67 L 286,67 L 287,66 L 288,66 L 282,66 Z" fill="rgb(39,121,118)" /><path d="M 261,65 Z" fill="rgb(148,149,153)" /><path d="M 241,65 Z" fill="rgb(148,149,153)" /><path d="M 221,65 L 220,66 L 205,66 L 204,67 L 207,67 L 210,70 L 210,109 L 209,110 L 209,111 L 207,113 L 205,113 L 234,113 L 234,110 L 235,109 L 235,104 L 234,104 L 234,106 L 230,110 L 220,110 L 218,108 L 218,91 L 219,90 L 229,90 L 230,91 L 230,92 L 231,93 L 231,95 L 232,94 L 232,85 L 231,85 L 230,86 L 229,86 L 228,87 L 219,87 L 218,86 L 218,70 L 219,69 L 220,69 L 221,70 L 229,70 L 231,72 L 231,73 L 232,74 L 232,75 L 233,74 L 233,66 L 222,66 Z" fill="rgb(41,122,119)" /><path d="M 201,65 Z" fill="rgb(148,149,153)" /><path d="M 181,65 Z" fill="rgb(148,149,153)" /><path d="M 141,65 Z" fill="rgb(148,149,153)" /><path d="M 1,65 Z" fill="rgb(148,149,153)" /><path d="M 541,45 Z" fill="rgb(148,149,153)" /><path d="M 521,45 Z" fill="rgb(148,149,153)" /><path d="M 501,45 Z" fill="rgb(148,149,153)" /><path d="M 481,45 Z" fill="rgb(148,149,153)" /><path d="M 461,45 Z" fill="rgb(148,149,153)" /><path d="M 441,45 Z" fill="rgb(148,149,153)" /><path d="M 421,45 Z" fill="rgb(148,149,153)" /><path d="M 401,45 Z" fill="rgb(148,149,153)" /><path d="M 381,45 Z" fill="rgb(148,149,153)" /><path d="M 361,45 Z" fill="rgb(148,149,153)" /><path d="M 341,45 Z" fill="rgb(148,149,153)" /><path d="M 321,45 Z" fill="rgb(148,149,153)" /><path d="M 301,45 Z" fill="rgb(148,149,153)" /><path d="M 281,45 Z" fill="rgb(148,149,153)" /><path d="M 261,45 Z" fill="rgb(148,149,153)" /><path d="M 241,45 Z" fill="rgb(148,149,153)" /><path d="M 221,45 Z" fill="rgb(148,149,153)" /><path d="M 201,45 Z" fill="rgb(148,149,153)" /><path d="M 181,45 Z" fill="rgb(148,149,153)" /><path d="M 161,45 Z" fill="rgb(148,149,153)" /><path d="M 121,45 Z" fill="rgb(148,149,153)" /><path d="M 101,45 Z" fill="rgb(148,149,153)" /><path d="M 81,45 Z" fill="rgb(148,149,153)" /><path d="M 41,45 Z" fill="rgb(148,149,153)" /><path d="M 21,45 Z" fill="rgb(148,149,153)" /><path d="M 1,45 Z" fill="rgb(148,149,153)" /><path d="M 541,25 Z" fill="rgb(148,149,153)" /><path d="M 521,25 Z" fill="rgb(148,149,153)" /><path d="M 501,25 Z" fill="rgb(148,149,153)" /><path d="M 481,25 Z" fill="rgb(148,149,153)" /><path d="M 461,25 Z" fill="rgb(148,149,153)" /><path d="M 441,25 Z" fill="rgb(148,149,153)" /><path d="M 421,25 Z" fill="rgb(148,149,153)" /><path d="M 401,25 Z" fill="rgb(148,149,153)" /><path d="M 381,25 Z" fill="rgb(148,149,153)" /><path d="M 361,25 Z" fill="rgb(148,149,153)" /><path d="M 341,25 Z" fill="rgb(148,149,153)" /><path d="M 321,25 Z" fill="rgb(148,149,153)" /><path d="M 301,25 Z" fill="rgb(148,149,153)" /><path d="M 281,25 Z" fill="rgb(148,149,153)" /><path d="M 261,25 Z" fill="rgb(148,149,153)" /><path d="M 241,25 Z" fill="rgb(148,149,153)" /><path d="M 221,25 Z" fill="rgb(148,149,153)" /><path d="M 201,25 Z" fill="rgb(148,149,153)" /><path d="M 181,25 Z" fill="rgb(148,149,153)" /><path d="M 161,25 Z" fill="rgb(148,149,153)" /><path d="M 121,25 Z" fill="rgb(148,149,153)" /><path d="M 61,25 Z" fill="rgb(148,149,153)" /><path d="M 41,25 Z" fill="rgb(148,149,153)" /><path d="M 21,25 Z" fill="rgb(148,149,153)" /><path d="M 1,25 Z" fill="rgb(148,149,153)" /><path d="M 90,16 L 89,17 L 89,21 L 88,22 L 88,25 L 87,26 L 82,26 L 81,25 L 82,26 L 81,27 L 78,27 L 77,28 L 75,28 L 74,29 L 72,29 L 71,30 L 70,30 L 69,31 L 68,31 L 67,32 L 66,32 L 65,33 L 63,33 L 56,26 L 54,28 L 53,28 L 51,30 L 50,30 L 47,33 L 46,33 L 43,36 L 42,36 L 42,37 L 43,38 L 43,39 L 44,40 L 44,41 L 45,42 L 45,44 L 46,45 L 46,47 L 39,54 L 39,55 L 37,57 L 37,58 L 36,59 L 36,60 L 35,61 L 35,62 L 33,64 L 33,65 L 32,66 L 31,65 L 21,65 L 21,66 L 20,67 L 20,68 L 19,69 L 19,71 L 18,72 L 18,74 L 17,75 L 17,78 L 16,79 L 16,81 L 17,81 L 19,83 L 20,83 L 21,84 L 21,85 L 22,84 L 23,85 L 24,85 L 26,87 L 26,89 L 25,90 L 25,107 L 26,108 L 48,108 L 49,109 L 49,111 L 50,112 L 50,114 L 51,115 L 51,117 L 52,118 L 52,119 L 53,120 L 53,121 L 54,122 L 54,123 L 55,124 L 55,125 L 57,127 L 57,128 L 68,139 L 69,139 L 71,141 L 72,141 L 74,143 L 75,143 L 76,144 L 77,144 L 78,145 L 80,145 L 81,146 L 83,146 L 84,147 L 87,147 L 88,148 L 95,148 L 96,149 L 101,149 L 102,148 L 108,148 L 109,147 L 112,147 L 113,146 L 116,146 L 117,145 L 118,145 L 119,144 L 120,144 L 121,145 L 120,144 L 121,143 L 123,143 L 125,141 L 126,141 L 129,138 L 130,138 L 139,129 L 139,128 L 141,126 L 141,125 L 118,125 L 117,126 L 116,126 L 114,128 L 112,128 L 111,129 L 110,129 L 109,130 L 107,130 L 106,131 L 100,131 L 99,132 L 98,132 L 97,131 L 91,131 L 90,130 L 87,130 L 86,129 L 85,129 L 84,128 L 83,128 L 81,126 L 81,125 L 80,126 L 77,123 L 76,123 L 72,119 L 72,118 L 70,116 L 70,115 L 69,114 L 69,113 L 68,112 L 68,111 L 67,110 L 67,109 L 68,108 L 148,108 L 148,106 L 149,105 L 149,91 L 148,90 L 148,86 L 147,85 L 147,82 L 146,81 L 146,80 L 145,79 L 145,78 L 144,77 L 144,75 L 143,74 L 143,73 L 141,71 L 141,70 L 139,68 L 139,67 L 130,58 L 129,58 L 127,56 L 126,56 L 124,54 L 123,54 L 122,53 L 121,53 L 120,52 L 119,52 L 118,51 L 117,51 L 116,50 L 113,50 L 112,49 L 110,49 L 109,48 L 101,48 L 100,47 L 97,47 L 96,48 L 88,48 L 87,49 L 84,49 L 83,50 L 81,50 L 80,51 L 79,51 L 78,52 L 77,52 L 76,53 L 75,53 L 74,54 L 72,54 L 69,57 L 68,57 L 57,68 L 57,69 L 55,71 L 55,72 L 54,73 L 54,74 L 53,75 L 53,76 L 52,77 L 52,78 L 51,79 L 51,81 L 50,82 L 50,84 L 49,85 L 49,88 L 48,89 L 48,90 L 47,91 L 39,91 L 38,90 L 38,89 L 39,88 L 39,84 L 40,83 L 40,80 L 41,79 L 41,78 L 42,77 L 42,75 L 43,74 L 43,73 L 44,72 L 44,71 L 45,70 L 45,69 L 46,68 L 46,67 L 48,65 L 48,64 L 51,61 L 51,60 L 60,51 L 61,51 L 64,48 L 65,48 L 67,46 L 68,46 L 69,45 L 70,45 L 71,44 L 72,44 L 73,43 L 74,43 L 75,42 L 76,42 L 77,41 L 79,41 L 80,40 L 82,40 L 83,39 L 86,39 L 87,38 L 96,38 L 97,37 L 100,37 L 101,38 L 109,38 L 110,39 L 113,39 L 114,40 L 116,40 L 117,41 L 119,41 L 120,42 L 122,42 L 123,43 L 124,43 L 125,44 L 126,44 L 127,45 L 128,45 L 129,46 L 130,46 L 132,48 L 133,48 L 136,51 L 137,51 L 144,58 L 144,59 L 148,63 L 148,64 L 150,66 L 150,67 L 151,68 L 151,69 L 152,70 L 152,71 L 153,72 L 153,73 L 154,74 L 154,75 L 155,76 L 155,77 L 156,78 L 156,80 L 157,81 L 157,84 L 158,85 L 158,91 L 159,92 L 159,104 L 158,105 L 158,111 L 157,112 L 157,115 L 156,116 L 156,118 L 155,119 L 155,120 L 154,121 L 154,122 L 153,123 L 153,124 L 152,125 L 152,126 L 151,127 L 151,128 L 150,129 L 150,130 L 148,132 L 148,133 L 144,137 L 144,138 L 137,145 L 136,145 L 133,148 L 132,148 L 130,150 L 129,150 L 128,151 L 127,151 L 126,152 L 125,152 L 124,153 L 123,153 L 122,154 L 120,154 L 119,155 L 117,155 L 116,156 L 114,156 L 113,157 L 110,157 L 109,158 L 101,158 L 100,159 L 97,159 L 96,158 L 88,158 L 87,157 L 83,157 L 82,156 L 80,156 L 79,155 L 77,155 L 76,154 L 74,154 L 73,153 L 72,153 L 70,151 L 69,151 L 68,150 L 67,150 L 66,149 L 65,149 L 61,145 L 60,145 L 51,136 L 51,135 L 48,132 L 48,131 L 46,129 L 46,128 L 45,127 L 45,126 L 44,125 L 30,125 L 31,126 L 31,127 L 32,128 L 32,129 L 33,130 L 33,132 L 34,133 L 34,134 L 36,136 L 36,137 L 38,139 L 38,140 L 40,142 L 40,143 L 41,144 L 41,145 L 42,145 L 46,149 L 46,151 L 45,152 L 45,154 L 44,155 L 44,156 L 43,157 L 43,158 L 42,159 L 42,160 L 43,160 L 46,163 L 47,163 L 50,166 L 51,166 L 53,168 L 54,168 L 56,170 L 63,163 L 65,163 L 66,164 L 67,164 L 68,165 L 69,165 L 70,166 L 71,166 L 72,167 L 74,167 L 75,168 L 77,168 L 78,169 L 81,169 L 82,170 L 87,170 L 88,171 L 88,174 L 89,175 L 89,179 L 90,180 L 107,180 L 107,178 L 108,177 L 108,174 L 109,173 L 109,171 L 110,170 L 114,170 L 115,169 L 118,169 L 119,168 L 121,168 L 122,167 L 124,167 L 125,166 L 126,166 L 127,165 L 129,165 L 130,164 L 131,164 L 132,163 L 133,163 L 135,165 L 136,165 L 141,170 L 144,167 L 145,167 L 147,165 L 148,165 L 151,162 L 152,162 L 154,160 L 154,157 L 153,156 L 153,155 L 152,154 L 152,153 L 151,152 L 151,149 L 154,146 L 154,145 L 158,141 L 158,140 L 160,138 L 160,137 L 161,136 L 161,135 L 163,133 L 163,132 L 165,130 L 166,131 L 176,131 L 176,129 L 177,128 L 177,127 L 178,126 L 178,124 L 179,123 L 179,120 L 180,119 L 180,116 L 181,115 L 180,115 L 179,114 L 178,114 L 177,113 L 176,113 L 174,111 L 173,111 L 171,109 L 171,100 L 172,99 L 172,97 L 171,96 L 171,87 L 173,85 L 174,85 L 176,83 L 177,83 L 178,82 L 179,82 L 180,81 L 181,81 L 180,80 L 180,77 L 179,76 L 179,73 L 178,72 L 178,70 L 177,69 L 177,68 L 176,67 L 176,65 L 166,65 L 165,66 L 163,64 L 163,63 L 161,61 L 161,60 L 160,59 L 160,58 L 158,56 L 158,55 L 154,51 L 154,50 L 151,47 L 151,44 L 152,43 L 152,42 L 153,41 L 153,40 L 154,39 L 154,36 L 152,34 L 151,34 L 148,31 L 147,31 L 145,29 L 144,29 L 141,26 L 141,25 L 141,26 L 135,32 L 134,32 L 133,33 L 132,33 L 131,32 L 130,32 L 129,31 L 127,31 L 126,30 L 125,30 L 124,29 L 122,29 L 121,28 L 119,28 L 118,27 L 115,27 L 114,26 L 110,26 L 109,25 L 109,23 L 108,22 L 108,19 L 107,18 L 107,16 Z" fill="rgb(38,120,118)" /><path d="M 541,5 Z" fill="rgb(148,149,153)" /><path d="M 521,5 Z" fill="rgb(148,149,153)" /><path d="M 501,5 Z" fill="rgb(148,149,153)" /><path d="M 481,5 Z" fill="rgb(148,149,153)" /><path d="M 461,5 Z" fill="rgb(148,149,153)" /><path d="M 441,5 Z" fill="rgb(148,149,153)" /><path d="M 421,5 Z" fill="rgb(148,149,153)" /><path d="M 401,5 Z" fill="rgb(148,149,153)" /><path d="M 381,5 Z" fill="rgb(148,149,153)" /><path d="M 361,5 Z" fill="rgb(148,149,153)" /><path d="M 341,5 Z" fill="rgb(148,149,153)" /><path d="M 321,5 Z" fill="rgb(148,149,153)" /><path d="M 301,5 Z" fill="rgb(148,149,153)" /><path d="M 281,5 Z" fill="rgb(148,149,153)" /><path d="M 261,5 Z" fill="rgb(148,149,153)" /><path d="M 241,5 Z" fill="rgb(148,149,153)" /><path d="M 221,5 Z" fill="rgb(148,149,153)" /><path d="M 201,5 Z" fill="rgb(148,149,153)" /><path d="M 181,5 Z" fill="rgb(148,149,153)" /><path d="M 161,5 Z" fill="rgb(148,149,153)" /><path d="M 141,5 Z" fill="rgb(148,149,153)" /><path d="M 121,5 Z" fill="rgb(148,149,153)" /><path d="M 101,5 Z" fill="rgb(148,149,153)" /><path d="M 81,5 Z" fill="rgb(148,149,153)" /><path d="M 61,5 Z" fill="rgb(148,149,153)" /><path d="M 41,5 Z" fill="rgb(148,149,153)" /><path d="M 21,5 Z" fill="rgb(148,149,153)" /><path d="M 1,5 Z" fill="rgb(148,149,153)" /></svg>